<?xml version="1.0" encoding="utf-8"?>
<!-- Generator: Adobe Illustrator 23.0.3, SVG Export Plug-In . SVG Version: 6.00 Build 0)  -->
<svg version="1.1" id="Layer_1" xmlns="http://www.w3.org/2000/svg" xmlns:xlink="http://www.w3.org/1999/xlink" x="0px" y="0px"
	 viewBox="0 0 428 127.1" style="enable-background:new 0 0 428 127.1;" xml:space="preserve">
<style type="text/css">
	.st0{fill:#5246e5;}
	.st1{fill-rule:evenodd;clip-rule:evenodd;fill:#5246e5;}
</style>
<g>
	<g>
		<path class="st0" d="M175.1,85c0,1.8,0.2,3.1,0.5,4.1c0.3,1,0.6,1.7,1.1,2.2c0.4,0.5,0.9,0.8,1.4,1c0.5,0.2,0.9,0.4,1.3,0.6
			c0.4,0.2,0.7,0.5,1,0.9s0.4,1,0.3,1.8c0,0,0,0.1,0,0.2s-0.1,0.1-0.3,0.1c-3,0-5.4,0-7.4,0c-2,0-3.7,0-5.1,0s-2.6,0-3.6,0
			s-1.9,0-2.8,0c-0.1,0-0.2,0-0.2-0.1c0-0.1,0-0.1,0-0.2c0-0.8,0.1-1.4,0.4-1.8c0.3-0.4,0.6-0.7,1-0.8c0.4-0.2,0.8-0.4,1.3-0.6
			s0.9-0.6,1.4-1.1c0.4-0.5,0.8-1.2,1-2.2c0.3-1,0.4-2.3,0.5-4.1V61.6c-3.8,0-7.3,0.1-10.6,0.1h-15c-0.7,0-1.1-0.1-1.3-0.2
			c-0.2-0.1-0.3-0.3-0.3-0.5c0-0.2,0-0.3,0.1-0.5s0.1-0.2,0.1-0.2c1.4-2.2,3.1-3.9,5-4.9c1.9-1.1,3.8-1.8,5.8-2.2
			c2-0.4,4-0.6,5.9-0.6c1.9,0,3.7,0,5.2,0.1c1.5,0,2.8-0.1,3.7-0.3c1-0.2,1.4-0.8,1.5-1.7c0-0.5,0-1.4,0-2.6c0-1.2-0.2-2.6-0.4-4.1
			c-0.2-1.5-0.5-3-0.9-4.5c-0.4-1.5-1-2.8-1.7-3.9c-0.6-0.8-1.3-1.7-2.2-2.4c-0.9-0.8-1.8-1.5-2.8-2c-1-0.6-2.1-1-3.3-1.4
			c-1.2-0.3-2.3-0.5-3.5-0.5c-1.2,0-2.4,0.2-3.6,0.5c-1.2,0.3-2.4,0.8-3.5,1.4c-1.1,0.6-2.1,1.2-3.1,2c-0.9,0.7-1.7,1.5-2.3,2.4
			c-2.6,3.4-3.9,8.2-3.9,14.6c0,4.5,0,8.4,0,11.7s0,6.2,0,8.7c0,2.4,0,4.5,0,6.2s0,3.1,0,4.2c0,1.1,0,2,0,2.6c0,0.6,0,1.2,0,1.5
			c0,1.8,0.2,3.2,0.5,4.2c0.3,1,0.7,1.7,1.2,2.2s1,0.9,1.5,1c0.5,0.2,1,0.4,1.5,0.6c0.4,0.2,0.8,0.5,1.1,0.9c0.3,0.4,0.4,1.1,0.3,2
			c-3.4,0-6.2,0-8.5,0c-2.3,0-4.2,0-5.8,0c-1.6,0-2.9,0-4.1,0c-1.1,0-2.2,0-3.2,0c-0.1-0.9,0-1.6,0.3-2c0.3-0.4,0.6-0.7,1.1-0.9
			c0.4-0.2,0.9-0.4,1.5-0.6c0.5-0.2,1.1-0.5,1.5-1c0.5-0.5,0.9-1.2,1.2-2.2c0.3-1,0.5-2.4,0.5-4.2V66.6V49.8
			c0-8.8,2.2-15.7,6.6-20.8c4.4-5.1,10.2-7.7,17.6-7.7c7.3,0,13.2,2.6,17.6,7.7c4.4,5.1,6.6,12,6.6,20.8L175.1,85z"/>
		<path class="st0" d="M190.7,86.8c0.1,1.4,0.3,2.5,0.6,3.3c0.3,0.8,0.7,1.4,1.1,1.8c0.4,0.4,0.9,0.7,1.4,0.8
			c0.5,0.2,0.9,0.3,1.3,0.5c0.4,0.2,0.7,0.5,0.9,0.9s0.3,1,0.3,1.8h-20c-0.1-0.8,0-1.4,0.2-1.7s0.5-0.7,0.9-0.8
			c0.4-0.2,0.8-0.4,1.3-0.5c0.5-0.2,0.9-0.4,1.4-0.8c0.4-0.4,0.8-0.9,1.2-1.6c0.3-0.7,0.6-1.7,0.7-3V23.3c1.6-0.1,3.1,0.2,4.3,1.1
			c0.5,0.4,1.1,0.9,1.6,1.5c0.5,0.6,1,1.5,1.4,2.5s0.7,2.2,1,3.6s0.4,3.1,0.4,5V86.8z M223.4,87.2c0.1,1.4,0.3,2.5,0.6,3.2
			c0.3,0.8,0.7,1.3,1.1,1.7s0.9,0.7,1.4,0.8c0.5,0.2,0.9,0.3,1.3,0.5c0.4,0.2,0.7,0.5,1,0.8c0.2,0.3,0.3,0.9,0.3,1.7h-8.8h-11.2
			c-0.1-0.7,0-1.3,0.3-1.7c0.2-0.4,0.6-0.6,1-0.8c0.4-0.2,0.8-0.3,1.3-0.5s0.9-0.4,1.4-0.8c0.4-0.4,0.8-0.9,1.1-1.7
			c0.3-0.7,0.5-1.8,0.6-3.1V69.3c0-3.6-1.1-6.6-3.3-8.9c-1.1-1.1-2.4-2-3.8-2.5c-1.4-0.6-3-0.9-4.8-0.9c-3.4,0-6.3,1.1-8.5,3.4
			c-0.1,0.1-0.2,0.3-0.3,0.4c-0.1,0.1-0.2,0.2-0.3,0.4V50.8c2.7-1.2,5.7-1.8,9.2-1.8c6.3,0,11.2,2,14.9,5.9
			c3.7,3.8,5.6,9.1,5.6,15.9L223.4,87.2L223.4,87.2z"/>
		<path class="st0" d="M230.7,71c0-3.4,0.6-6.7,1.9-9.8c1.2-3.1,3-5.9,5.4-8.4c2.3-2.4,4.9-4.3,7.8-5.6c2.9-1.3,5.9-1.9,9.2-1.9
			c3.4,0,6.5,0.6,9.3,1.9c3,1.3,5.6,3.1,7.9,5.6c2.3,2.5,4.1,5.3,5.3,8.4c1.2,3.1,1.8,6.4,1.8,9.9c0,3.5-0.6,6.9-1.8,10
			c-1.3,3.2-3,6-5.3,8.4c-2.2,2.4-4.9,4.3-7.9,5.6c-3,1.3-6.1,1.9-9.3,1.9c-3.2,0-6.3-0.6-9.2-1.9c-2.9-1.3-5.5-3.1-7.8-5.6
			c-2.4-2.5-4.2-5.3-5.4-8.4C231.3,77.8,230.7,74.5,230.7,71z M239.7,70.9c0,4.8,1.5,8.9,4.5,12.2c3,3.4,6.7,5.1,10.9,5.1
			c4.2,0,7.9-1.7,10.9-5.1c3-3.3,4.5-7.4,4.5-12.2c0-4.8-1.5-8.8-4.5-12.2c-3-3.3-6.7-5-10.9-5c-4.2,0-7.8,1.7-10.9,5
			C241.2,62.1,239.7,66.1,239.7,70.9z"/>
		<path class="st0" d="M319.6,79.7c1.5-1.4,2.9-2.5,4-3.1c1.2-0.6,2.1-1,2.9-1.2c0.9-0.2,1.7-0.3,2.4-0.2c-0.3,1.8-0.7,3.4-1.1,4.9
			c-0.5,1.5-1,2.9-1.7,4.1s-1.4,2.5-2.2,3.6S322.1,90,321,91c-4.4,4.1-9.7,6.2-15.9,6.2c-2.1,0-4.2-0.3-6.3-0.9
			c-2.1-0.6-4.1-1.4-5.9-2.6c-3.8-2.4-6.8-5.6-8.9-9.5c-2.1-3.9-3.2-8.2-3.2-12.9c0-1.7,0.2-3.4,0.5-5c0.3-1.6,0.8-3.2,1.4-4.8
			c1.2-3.1,3-5.9,5.3-8.4c2.3-2.4,5-4.3,7.9-5.6c3.1-1.3,6.2-1.9,9.4-1.9c4.9,0,9.2,1.3,13.1,4c3.9,2.7,7,6.5,9.3,11.6l-31.6,18.1
			c-0.3-1.5-0.3-3,0-4.5c0.3-1.3,0.9-2.7,2-4.1s2.6-2.8,4.9-4.1c0.2-0.1,0.5-0.3,0.9-0.6c0.4-0.3,1-0.6,1.6-1s1.3-0.8,2.1-1.2
			c0.8-0.4,1.5-0.9,2.3-1.3c1.8-1.1,3.8-2.2,5.9-3.5c-1.4-1.6-3-2.9-4.8-3.7c-1.7-0.8-3.7-1.3-5.9-1.3c-4.3,0-8,1.7-10.9,5
			c-3,3.3-4.4,7.4-4.4,12.3s1.5,9,4.4,12.3c3,3.4,6.6,5,10.9,5c4.1,0,7.5-1.4,10.3-4.2c0.9-0.8,1.7-1.6,2.2-2.4
			C318.1,81.2,318.8,80.4,319.6,79.7z"/>
		<path class="st0" d="M341.7,86.5c0.1,1.5,0.3,2.7,0.6,3.5c0.3,0.8,0.7,1.5,1.1,1.9c0.4,0.4,0.9,0.7,1.4,0.9s0.9,0.3,1.4,0.5
			c0.4,0.2,0.7,0.5,1,0.8c0.2,0.4,0.3,1,0.3,1.8h-20c0-0.8,0.1-1.4,0.3-1.8c0.2-0.4,0.6-0.7,1-0.8c0.4-0.2,0.8-0.4,1.3-0.5
			s1-0.5,1.4-0.9c0.4-0.4,0.8-1.1,1.1-1.9c0.3-0.8,0.5-2.1,0.6-3.6V41.9c0-6.2,1.7-10.8,5.1-13.9c3.3-3.1,8.4-4.6,15.3-4.6h4.2h1.3
			c0.4,0,0.7,0,1,0s0.6,0,0.7,0c1.7,0,3.2,0.5,4.2,1.4c1.1,0.9,1.9,1.9,2.4,2.9c0.7,1.3,1.1,2.7,1.4,4.2h-10.1h-5
			c-4.2,0-7.2,0.9-9.1,2.8c-1.9,1.8-2.9,4.8-2.9,8.8V86.5z M358.7,46.3c1.7,0,3.2,0.5,4.2,1.4s1.9,1.8,2.5,2.9
			c0.7,1.2,1.1,2.6,1.4,4.1h-22.2v-8.4H358.7z"/>
		<path class="st0" d="M413.4,92.4c0.3,0.3,0.6,0.5,0.9,0.6s0.7,0.2,1.1,0.3c0.4,0.1,0.7,0.2,1.1,0.4c0.3,0.2,0.6,0.4,0.8,0.7
			c0.2,0.3,0.3,0.7,0.4,1.3c0,0.1-0.1,0.2-0.2,0.2h-13.2h0V71.1c0-5.1-1.4-9.4-4.2-12.7c-2.9-3.2-6.6-4.8-11.1-4.8
			c-4.5,0-8.2,1.6-11.1,4.8c-2.9,3.3-4.3,7.4-4.3,12.3c0,5.1,1.5,9.4,4.5,12.7c3,3.3,6.8,4.9,11.4,4.9c2.1,0,4.2-0.4,6.1-1.1
			c1-0.4,2-0.8,3-1.4c1-0.6,2-1.2,3-2v9.6c-2,1.2-4.1,2-6.2,2.6c-1.1,0.3-2.2,0.5-3.4,0.6c-1.2,0.1-2.3,0.2-3.5,0.2
			c-2.3,0-4.5-0.4-6.8-1.1c-2.2-0.7-4.3-1.8-6.1-3.1c-3.5-2.5-6.1-5.6-8-9.2c-1.8-3.7-2.8-7.9-2.8-12.4c0-7.4,2.3-13.6,6.8-18.4
			c4.5-4.8,10.3-7.2,17.3-7.2c4.6,0,8.9,1.2,12.7,3.6c1.9,1.2,3.6,2.7,5.1,4.4c1.5,1.7,2.7,3.6,3.7,5.5c0.5,1,0.9,1.9,1.2,3
			c0.4,1,0.6,2.1,0.8,3.2c0.4,2.3,0.6,5.7,0.6,10.1v16.2C412.9,91.7,413.1,92.1,413.4,92.4z"/>
	</g>
	<path class="st1" d="M104,100.7l-12,0V18.2H65.3v-6.7c0-1.2-0.6-2.4-1.5-3.1c-0.9-0.8-2.2-1-3.4-0.8l-48,10.7
		c-1.8,0.4-3.1,2-3.1,3.9v85.4c0,1.9,1.3,3.5,3.1,3.9l48,10.7c1.2,0.3,2.4,0,3.4-0.8c0.9-0.8,1.5-1.9,1.5-3.1v-6.9l38.7,0V100.7z
		 M50.6,72.9H40v-16h10.7V72.9z M65.3,28.9h16v71.9l-16,0V28.9z"/>
</g>
</svg>
